# xmcd CD database file
#
# Track frame offsets:
#	150
#	22615
#	40235
#	62680
#
# Disc length: 1068 seconds
#
# Revision: 1
# Processed by: cddbd v1.5.1PL0 Copyright (c) Steve Scherf et al.
# Submitted via: CDex 1.51
#
DISCID=24042a04
DTITLE=大黒摩季 - ゲンキダシテ
DYEAR=1997
DGENRE=JPop
TTITLE0=ゲンキダシテ
TTITLE1=You are not mine
TTITLE2=ゲンキダシテ original karaoke
TTITLE3=You are not mine original karaoke
EXTD=YEAR: 1997
EXTT0=
EXTT1=
EXTT2=
EXTT3=
PLAYORDER=
